<svg width="138" height="139" viewBox="0 0 138 139" fill="none" xmlns="http://www.w3.org/2000/svg">
<path d="M99.0267 21.0681C66.6671 24.2524 41.8423 39.5901 41.8423 39.5901L49.764 99.7498C46.3121 98.8839 42.2822 99.1026 38.3602 100.62C29.9044 103.89 25.1481 111.948 27.7374 118.621C30.3266 125.294 39.28 128.053 47.7349 124.784C55.7076 121.701 60.3883 114.36 58.7276 107.939L52.7943 62.991C52.7943 62.991 70.5964 54.0197 94.5865 49.1927L98.9995 82.6236C95.5911 81.8125 91.6407 82.048 87.7903 83.5372C79.3344 86.8065 74.5781 94.8648 77.1675 101.539C79.7558 108.212 88.709 110.97 97.165 107.701C104.548 104.845 109.11 98.3382 108.426 92.2923L108.429 92.2957L99.0267 21.0681Z" fill="#F1D765"/>
</svg>
