<svg width="149" height="154" viewBox="0 0 149 154" fill="none" xmlns="http://www.w3.org/2000/svg">
<g clip-path="url(#clip0_5_12)">
<path d="M116.518 10.0357C99.4849 13.9341 87.2948 23.7986 87.2948 23.7986L95.6094 55.3292C93.7104 55.1024 91.5771 55.493 89.5895 56.5685C85.3044 58.8869 83.3171 63.5061 85.1512 66.8871C86.9853 70.2681 91.9457 71.13 96.2305 68.8123C100.271 66.6263 102.267 62.3948 100.945 59.0851L94.7246 35.528C94.7246 35.528 103.604 29.5349 116.064 25.3301L120.691 42.8509C118.818 42.6504 116.729 43.0446 114.777 44.1003C110.492 46.4182 108.505 51.0374 110.339 54.4189C112.173 57.8 117.133 58.6615 121.418 56.3436C125.16 54.3192 127.149 50.5402 126.373 47.3639L126.375 47.3655L116.518 10.0357V10.0357Z" fill="#F1D765"/>
<path d="M73.6344 94.1782C53.6111 89.5762 35.6562 93.7695 35.6562 93.7695L28.2996 131.398C26.4061 130.185 23.9483 129.505 21.2939 129.625C15.5712 129.883 11.1013 133.753 11.3099 138.27C11.5185 142.788 16.3263 146.242 22.0483 145.985C27.4441 145.741 31.7244 142.286 32.0213 138.106L37.509 109.989C37.509 109.989 49.9768 108.197 65.3174 110.131L61.2358 131.043C59.3574 129.872 56.9438 129.218 54.338 129.336C48.6154 129.593 44.1455 133.463 44.354 137.981C44.562 142.499 49.3699 145.952 55.0925 145.695C60.0894 145.47 64.1308 142.49 64.9369 138.731L64.9383 138.734L73.6344 94.1782V94.1782Z" fill="#F1D765"/>
</g>
<defs>
<clipPath id="clip0_5_12">
<rect width="149" height="154" fill="white"/>
</clipPath>
</defs>
</svg>
