<svg width="440" height="100" viewBox="0 0 440 100" fill="none" xmlns="http://www.w3.org/2000/svg">
<path fill-rule="evenodd" clip-rule="evenodd" d="M137.399 72.3623V88.8351H143.919V72.4428C143.919 68.0161 146.333 65.0381 150.384 65.0381C154.891 65.0381 156.662 68.1234 156.662 72.2819V88.8351H163.208V70.7258C163.208 64.0723 159.962 58.8407 152.504 58.8407C148.023 58.8407 145.153 60.5041 142.309 63.643C140.645 60.7187 137.721 58.8407 133.268 58.8407C130.933 58.8407 127.312 59.6992 124.495 63.4552V59.5114H118.109V88.8351H124.656V72.4965C124.656 68.0698 127.07 65.0381 131.121 65.0381C135.628 65.0381 137.399 68.2039 137.399 72.3623ZM176.208 75.9306V59.5114H169.662V77.5403C169.662 84.1938 173.311 89.4522 180.662 89.4522C182.969 89.4522 186.806 88.6742 189.623 84.8913V88.8351H196.008V59.5114H189.462V75.8232C189.462 80.25 186.833 83.2548 182.674 83.2548C178.167 83.2548 176.208 80.089 176.208 75.9306ZM212.684 89.3449C219.981 89.3449 223.388 84.7304 223.388 80.1963C223.388 76.011 220.437 72.5233 215.071 71.3697L211.047 70.5112C209.41 70.1624 208.096 69.1966 208.096 67.4795C208.096 65.4942 210.054 64.1528 212.12 64.1528C215.581 64.1528 217.003 66.3527 217.432 68.2576L222.959 66.7015C222.449 63.8845 219.82 58.8675 212.12 58.8675C206.137 58.8675 201.764 63.187 201.764 68.0429C201.764 71.8794 204.179 75.2062 209.518 76.4671L213.274 77.3525C215.742 77.9427 216.762 78.989 216.762 80.5719C216.762 82.6109 215.286 84.006 212.576 84.006C209.223 84.006 207.237 81.8329 206.701 79.3378L201.094 80.8134C201.469 84.0865 204.715 89.3449 212.684 89.3449ZM227.642 49.9873C227.642 47.5995 229.574 45.641 231.935 45.641C234.322 45.641 236.254 47.5995 236.254 49.9873C236.254 52.375 234.322 54.2798 231.935 54.2798C229.574 54.2798 227.642 52.375 227.642 49.9873ZM228.688 88.8351V59.5114H235.235V88.8351H228.688ZM246.196 88.8351L253.574 78.6134L260.978 88.8351H268.49L257.383 73.8916L268.142 59.5114H260.764L253.654 69.2234L246.625 59.5114H239.14L249.871 73.9989L238.737 88.8351H246.196ZM291.31 72.3623V88.8351H297.829V72.4428C297.829 68.0161 300.244 65.0381 304.295 65.0381C308.802 65.0381 310.573 68.1234 310.573 72.2819V88.8351H317.119V70.7258C317.119 64.0723 313.873 58.8407 306.414 58.8407C301.934 58.8407 299.063 60.5041 296.219 63.643C294.556 60.7187 291.632 58.8407 287.178 58.8407C284.844 58.8407 281.222 59.6992 278.405 63.4552V59.5114H272.02V88.8351H278.566V72.4965C278.566 68.0698 280.981 65.0381 285.032 65.0381C289.539 65.0381 291.31 68.2039 291.31 72.3623ZM321.909 74.133C321.909 82.0207 327.865 89.2912 336.343 89.2912C338.677 89.2912 343.667 88.1376 346.082 84.3816V88.8351H352.548V59.5114H346.082V63.7772C343.667 60.1553 339.08 58.9212 336.504 58.9212C327.329 58.9212 321.909 66.7283 321.909 74.133ZM346.109 74.133C346.109 79.15 342.621 83.3621 337.309 83.3621C332.024 83.3621 328.509 79.1768 328.509 74.133C328.509 69.0356 331.997 64.8503 337.309 64.8503C342.621 64.8503 346.109 69.0356 346.109 74.133ZM376.226 65.3869V59.5114H368.767V50.4165H362.248V59.5114H356.56V65.3869H362.248V79.7402C362.248 86.8766 365.494 89.1034 371.262 89.1034C372.067 89.1034 374.16 89.0498 375.957 88.5132V82.9597C374.696 83.1206 373.891 83.1743 373.301 83.1743C370.028 83.1743 368.767 81.9133 368.767 79.3914V65.3869H376.226ZM394.216 89.3449C402.211 89.3449 406.745 84.1938 408.059 79.7402L402.077 77.8086C401.218 80.0622 399.367 83.3889 394.35 83.3889C389.36 83.3889 385.657 79.4719 385.657 73.9989C385.657 68.4454 389.521 64.8235 394.296 64.8235C399.152 64.8235 401.299 68.0161 401.969 70.2965L407.898 68.3649C406.664 63.4016 401.594 58.8944 394.323 58.8944C385.577 58.8944 378.95 65.7357 378.95 74.1062C378.95 82.745 385.577 89.3449 394.216 89.3449ZM432.542 72.416V88.8351H439.088V70.7795C439.088 64.0991 435.547 58.8944 428.089 58.8944C425.781 58.8944 422.106 59.6456 419.289 63.2138V44.085H412.743V88.8351H419.289V72.4965C419.289 68.0698 421.918 65.0918 426.076 65.0918C430.584 65.0918 432.542 68.2307 432.542 72.416Z" fill="white"/>
<path fill-rule="evenodd" clip-rule="evenodd" d="M50 100C77.6142 100 100 77.6142 100 50C100 22.3858 77.6142 0 50 0C22.3858 0 0 22.3858 0 50C0 77.6142 22.3858 100 50 100Z" fill="url(#paint0_linear)"/>
<g clip-path="url(#clip0)">
<path fill-rule="evenodd" clip-rule="evenodd" d="M67.8873 26.5049C67.8873 26.5049 55.995 35.6871 50.0489 40.2781C49.9977 40.3177 49.8952 40.3968 49.8952 40.3968L31.7349 26.6257C30.7338 25.8485 29.5687 25.4993 28.4295 25.4992C25.7829 25.4988 23.2743 27.3828 23.2743 30.1602V40.6037L23.2705 71.6491C23.2705 74.4262 25.7793 76.3102 28.4257 76.3102C29.5651 76.3102 30.7299 75.961 31.7311 75.1835L49.8952 61.2918C58.9333 68.3095 67.8835 75.1835 67.8835 75.1835C68.8845 75.9608 70.0498 76.3102 71.1888 76.3102C73.8356 76.3102 76.52 74.4264 76.52 71.6491V40.6037V29.9492C76.52 27.1721 73.839 25.3784 71.1926 25.3784C70.0532 25.3784 68.8884 25.7276 67.8873 26.5049Z" fill="white" fill-opacity="0.7"/>
<path fill-rule="evenodd" clip-rule="evenodd" d="M36.5679 50.8648L49.8955 61.292L63.1379 50.862L49.8955 40.397L36.5679 50.8648Z" fill="white" fill-opacity="0.6"/>
<path fill-rule="evenodd" clip-rule="evenodd" d="M23.2769 40.5669V61.163L36.5675 50.8649L23.2769 40.5669Z" fill="white" fill-opacity="0.6"/>
<path fill-rule="evenodd" clip-rule="evenodd" d="M63.1377 50.862L76.52 61.292V40.397L63.1377 50.862Z" fill="white" fill-opacity="0.6"/>
<path fill-rule="evenodd" clip-rule="evenodd" d="M67.6448 26.6844L49.895 40.3968L63.1374 50.8618L76.5198 40.3968V29.9493C76.5198 25.9793 71.4484 23.4196 67.6448 26.6844Z" fill="white"/>
<path fill-rule="evenodd" clip-rule="evenodd" d="M31.7531 26.5442C28.4219 23.963 23.2808 26.1063 23.2808 30.0763V40.5668L36.5677 50.8648L49.8953 40.397L31.7531 26.5442Z" fill="white"/>
</g>
<path d="M122.584 14.208H120.616V33H131.488V31.152H122.584V14.208ZM136.096 32.136L132.784 39.312H134.8L143.584 20.184H141.568L137.128 30.096L132.424 20.184H130.264L136.096 32.136ZM147.73 22.728V20.184H145.882V33H147.754V26.736C147.754 24.456 148.738 21.96 151.762 21.96C152.002 21.96 152.242 21.984 152.482 22.008V20.016C152.338 19.992 151.978 19.992 151.858 19.992C150.394 19.992 148.69 20.736 147.73 22.728ZM154.303 15.6C154.303 16.368 154.927 16.992 155.695 16.992C156.487 16.992 157.111 16.368 157.111 15.6C157.111 14.808 156.487 14.184 155.695 14.184C154.927 14.184 154.303 14.808 154.303 15.6ZM156.655 20.184H154.759V33H156.655V20.184ZM161.62 26.52C161.62 23.856 163.516 21.624 166.252 21.624C168.916 21.624 170.188 23.616 170.476 24.6L172.204 24.048C171.676 21.888 169.3 19.968 166.324 19.968C162.7 19.968 159.7 22.752 159.7 26.64C159.7 30.48 162.532 33.216 166.228 33.216C169.588 33.216 171.7 30.984 172.276 29.064L170.524 28.488C170.164 29.448 169.084 31.56 166.252 31.56C163.348 31.56 161.62 29.184 161.62 26.52ZM183.61 29.352C183.61 27.024 181.498 25.92 179.41 25.656C178.09 25.488 176.362 25.248 176.362 23.64C176.362 22.536 177.394 21.6 178.786 21.6C180.826 21.6 181.522 22.992 181.738 23.856L183.442 23.448C183.25 22.224 182.17 19.968 178.786 19.968C176.674 19.968 174.49 21.384 174.49 23.784C174.49 26.28 176.578 27.048 178.714 27.36C180.034 27.552 181.714 27.912 181.714 29.472C181.714 30.816 180.442 31.56 179.05 31.56C177.058 31.56 176.194 30.168 175.93 29.016L174.202 29.424C174.442 30.864 175.594 33.216 179.074 33.216C181.546 33.216 183.61 31.704 183.61 29.352ZM206.014 26.568C206.014 23.232 203.638 19.968 199.99 19.968C197.566 19.968 196.054 21.36 195.022 22.968V20.184H193.174V39.312H195.046V30.36C196.078 31.992 197.614 33.192 199.99 33.192C203.638 33.192 206.014 30.024 206.014 26.568ZM199.606 31.536C196.894 31.536 195.022 29.184 195.022 26.544C195.022 23.976 196.966 21.624 199.606 21.624C202.438 21.624 204.094 23.952 204.094 26.616C204.094 29.328 202.438 31.536 199.606 31.536ZM214.747 33.216C218.491 33.216 221.395 30.336 221.395 26.544C221.395 22.872 218.491 19.968 214.795 19.968C211.003 19.968 208.147 22.848 208.147 26.64C208.147 30.288 211.027 33.216 214.747 33.216ZM214.795 31.56C211.987 31.56 210.067 29.232 210.067 26.544C210.067 23.856 211.963 21.6 214.747 21.6C217.531 21.6 219.475 23.952 219.475 26.64C219.475 29.304 217.531 31.56 214.795 31.56ZM227.236 33H229.3L232.708 22.584H232.732L236.116 33H238.204L242.524 20.184H240.58L237.196 30.84H237.172L233.668 20.184H231.796L228.316 30.816H228.292L224.932 20.184H222.94L227.236 33ZM245.703 27.168H256.071C256.095 26.976 256.095 26.76 256.095 26.544C256.095 22.8 254.007 19.968 250.047 19.968C246.447 19.968 243.807 23.088 243.807 26.568C243.807 30.264 246.591 33.216 250.311 33.216C252.855 33.216 255.159 31.824 255.927 29.352L254.247 28.824C253.647 30.624 252.183 31.56 250.287 31.56C247.791 31.56 245.847 29.664 245.703 27.168ZM254.199 25.584H245.727C246.039 23.448 247.815 21.6 250.047 21.6C252.495 21.6 253.959 23.256 254.199 25.584ZM260.929 22.728V20.184H259.081V33H260.953V26.736C260.953 24.456 261.937 21.96 264.961 21.96C265.201 21.96 265.441 21.984 265.681 22.008V20.016C265.537 19.992 265.177 19.992 265.057 19.992C263.593 19.992 261.889 20.736 260.929 22.728ZM268.473 27.168H278.841C278.865 26.976 278.865 26.76 278.865 26.544C278.865 22.8 276.777 19.968 272.817 19.968C269.217 19.968 266.577 23.088 266.577 26.568C266.577 30.264 269.361 33.216 273.081 33.216C275.625 33.216 277.929 31.824 278.697 29.352L277.017 28.824C276.417 30.624 274.953 31.56 273.057 31.56C270.561 31.56 268.617 29.664 268.473 27.168ZM276.969 25.584H268.497C268.809 23.448 270.585 21.6 272.817 21.6C275.265 21.6 276.729 23.256 276.969 25.584ZM280.939 26.568C280.939 30.072 283.267 33.192 286.939 33.192C289.411 33.192 290.947 31.896 291.931 30.264V33H293.755V13.464H291.907V22.872C290.875 21.36 289.411 19.968 286.939 19.968C283.315 19.968 280.939 23.232 280.939 26.568ZM287.323 31.536C284.515 31.536 282.835 29.256 282.835 26.616C282.835 23.856 284.515 21.624 287.323 21.624C289.987 21.624 291.931 24 291.931 26.544C291.931 29.184 290.035 31.536 287.323 31.536ZM317.063 26.568C317.063 23.232 314.687 19.968 311.039 19.968C308.639 19.968 307.151 21.312 306.095 22.944V13.464H304.223V33H306.071V30.312C307.103 31.992 308.615 33.192 311.039 33.192C314.687 33.192 317.063 30.024 317.063 26.568ZM310.655 31.536C307.943 31.536 306.071 29.184 306.071 26.544C306.071 23.976 308.015 21.624 310.655 21.624C313.487 21.624 315.143 23.952 315.143 26.616C315.143 29.328 313.487 31.536 310.655 31.536ZM324.355 32.136L321.043 39.312H323.059L331.843 20.184H329.827L325.387 30.096L320.683 20.184H318.523L324.355 32.136Z" fill="white"/>
<defs>
<linearGradient id="paint0_linear" x1="0.69854" y1="0" x2="0.69854" y2="98.6029" gradientUnits="userSpaceOnUse">
<stop stop-color="#FF6633"/>
<stop offset="1" stop-color="#FF0E83"/>
</linearGradient>
<clipPath id="clip0">
<rect width="53.2495" height="51.1154" fill="white" transform="translate(23.2705 25.1948)"/>
</clipPath>
</defs>
</svg>
